<svg width="38" height="38" viewBox="0 0 38 38" fill="none" xmlns="http://www.w3.org/2000/svg">
<path d="M0 0H38V38H0V0Z" fill="white"/>
<path fill-rule="evenodd" clip-rule="evenodd" d="M19 38C29.4934 38 38 29.4934 38 19C38 8.50659 29.4934 0 19 0C8.50659 0 0 8.50659 0 19C0 29.4934 8.50659 38 19 38ZM19 28.5C24.2467 28.5 28.5 24.2467 28.5 19C28.5 13.7533 24.2467 9.5 19 9.5C13.7533 9.5 9.5 13.7533 9.5 19C9.5 24.2467 13.7533 28.5 19 28.5Z" fill="#2BE080"/>
<path d="M0 0V-1H-1V0H0ZM38 0H39V-1H38V0ZM38 38V39H39V38H38ZM0 38H-1V39H0V38ZM0 1H38V-1H0V1ZM37 0V38H39V0H37ZM38 37H0V39H38V37ZM1 38V0H-1V38H1Z" fill="black"/>
</svg>
